# xmcd
# 
# Track frame offsets:
#     150
#     14085
#     31532
#     47627
#     65311
#     81773
#     95908
#     111471
#     124663
#     144241
#     159514
#     175190
#     185845
#     201137
# 
# Disc length: 2855
# 
# Revision: 2
# Processed by: cddbd v1.5.2PL0 Copyright (c) Steve Scherf et al.
# Submitted via: BonkEnc v1.0
# 
DISCID=bf0b250e
DTITLE=Gino and Geno - Canto Bebo E Choro
DYEAR=2007
DGENRE=Country
TTITLE0=Bola Da Vez
TTITLE1=Canto Bebo E Choro
TTITLE2=Chorei Chorei
TTITLE3=Querendo Maria
TTITLE4=To Chegando Pra Te Amar
TTITLE5=Pra Tirar O Barro
TTITLE6=Um Botao Pra Dar
TTITLE7=Vento Que Venta La
TTITLE8=Ninguem Sabe Ninguem Viu
TTITLE9=Freio De Mao
TTITLE10=Reza Pra Nos
TTITLE11=Pescaria
TTITLE12=Arrependido
TTITLE13=Toalha Branca
EXTD=
EXTT0=
EXTT1=
EXTT2=
EXTT3=
EXTT4=
EXTT5=
EXTT6=
EXTT7=
EXTT8=
EXTT9=
EXTT10=
EXTT11=
EXTT12=
EXTT13=
PLAYORDER=
